<svg width="100" height="100" viewBox="0 0 100 100" fill="currentColor" xmlns="http://www.w3.org/2000/svg">
<path d="M25 27.7848C25 20.449 31.0253 14.5 38.4551 14.5H61.5449C68.9747 14.5 75 20.449 75 27.7848C75 32.4303 72.5843 36.5211 68.9185 38.8924C72.5843 41.2637 75 45.3545 75 50C75 57.3357 68.9747 63.2848 61.5449 63.2848H61.25C57.7669 63.2848 54.5927 61.9812 52.2051 59.8318V72.0766C52.2051 79.5094 46.0253 85.5 38.5253 85.5C31.1096 85.5 25 79.5648 25 72.2152C25 67.5697 27.4157 63.4789 31.0674 61.1076C27.4157 58.7363 25 54.6455 25 50C25 45.3545 27.4157 41.2637 31.0674 38.8924C27.4157 36.5211 25 32.4303 25 27.7848ZM47.7949 41.0695H38.4551C33.4551 41.0695 29.4101 45.0633 29.4101 50C29.4101 54.909 33.427 58.9027 38.3989 58.9305C38.4129 58.9305 38.441 58.9305 38.4551 58.9305H47.7949V41.0695ZM52.2051 50C52.2051 54.9367 56.25 58.9305 61.25 58.9305H61.5449C66.5309 58.9305 70.5899 54.9367 70.5899 50C70.5899 45.0633 66.5309 41.0695 61.5449 41.0695H61.25C56.25 41.0695 52.2051 45.0633 52.2051 50ZM38.4551 63.2848C38.441 63.2848 38.4129 63.2848 38.3989 63.2848C33.427 63.3125 29.4101 67.3063 29.4101 72.2152C29.4101 77.1381 33.5112 81.1457 38.5253 81.1457C43.6236 81.1457 47.7949 77.0688 47.7949 72.0766V63.2848H38.4551ZM38.4551 18.8543C33.4551 18.8543 29.4101 22.848 29.4101 27.7848C29.4101 32.7215 33.4551 36.7152 38.4551 36.7152H47.7949V18.8543H38.4551ZM52.2051 36.7152H61.5449C66.5309 36.7152 70.5899 32.7215 70.5899 27.7848C70.5899 22.848 66.5309 18.8543 61.5449 18.8543H52.2051V36.7152Z" fill="currentColor"/>
</svg>
