<svg width="100" height="106" viewBox="0 0 100 106" fill="currentColor" xmlns="http://www.w3.org/2000/svg">
<path d="M14 17.5V88.5H86V17.5H14ZM53.1821 72.8737C53.1821 79.7835 49.0679 82.9373 43.0732 82.9373C37.6571 82.9373 34.5232 80.1797 32.9161 76.8357L38.4286 73.5551C39.4893 75.4094 40.4536 76.9783 42.7839 76.9783C45.0018 76.9783 46.4161 76.1225 46.4161 72.7786V50.0998H53.1821V72.8737ZM69.1893 82.9373C62.9054 82.9373 58.8393 79.9895 56.8625 76.1225L62.375 72.9846C63.8214 75.3143 65.7179 77.0417 69.0446 77.0417C71.8411 77.0417 73.6411 75.6629 73.6411 73.7453C73.6411 71.4632 71.8089 70.6549 68.7071 69.3078L67.0196 68.5946C62.1339 66.5502 58.9036 63.967 58.9036 58.531C58.9036 53.523 62.7768 49.7194 68.8036 49.7194C73.1107 49.7194 76.1964 51.1933 78.4143 55.0603L73.1429 58.3884C71.9857 56.344 70.7321 55.5357 68.7875 55.5357C66.8107 55.5357 65.5571 56.7719 65.5571 58.3884C65.5571 60.3853 66.8107 61.1935 69.7196 62.4455L71.4071 63.1587C77.1607 65.5835 80.3911 68.0717 80.3911 73.6502C80.3911 79.6408 75.6018 82.9373 69.1893 82.9373Z" fill="currentColor"/>
</svg>
