<svg width="100" height="100" viewBox="0 0 100 100" fill="currentColor" xmlns="http://www.w3.org/2000/svg">
<path d="M80 25.5938V32.25C80 38.3793 66.3431 43.3438 49.5 43.3438C32.6569 43.3438 19 38.3793 19 32.25V25.5938C19 19.4645 32.6569 14.5 49.5 14.5C66.3431 14.5 80 19.4645 80 25.5938ZM72.5384 44.2729C75.3705 43.2467 77.9712 41.9293 80 40.3068V54.4375C80 60.5668 66.3431 65.5312 49.5 65.5312C32.6569 65.5312 19 60.5668 19 54.4375V40.3068C21.0288 41.9432 23.6295 43.2467 26.4616 44.2729C32.5752 46.4916 40.7176 47.7812 49.5 47.7812C58.2824 47.7812 66.4248 46.4916 72.5384 44.2729ZM19 62.4943C21.0288 64.1307 23.6295 65.4342 26.4616 66.4604C32.5752 68.6791 40.7176 69.9688 49.5 69.9688C58.2824 69.9688 66.4248 68.6791 72.5384 66.4604C75.3705 65.4342 77.9712 64.1168 80 62.4943V74.4062C80 80.5355 66.3431 85.5 49.5 85.5C32.6569 85.5 19 80.5355 19 74.4062V62.4943Z" fill="currentColor"/>
</svg>
