<svg width="100" height="100" viewBox="0 0 100 100" fill="none" xmlns="http://www.w3.org/2000/svg">
<path d="M50 29.0963C71.425 29.0963 87.9 38.1052 87.9 48C87.9 57.8948 71.4125 66.9037 50 66.9037C28.575 66.9037 12.1 57.8948 12.1 48C12.1 38.1052 28.5875 29.0963 50 29.0963ZM50 27C27.9125 27 10 36.3957 10 48C10 59.6043 27.9125 69 50 69C72.0875 69 90 59.6043 90 48C90 36.3957 72.0875 27 50 27ZM37.275 46.3155C36.2875 51.369 32.8 50.8449 28.5125 50.8449L30.225 42.0357C34.975 42.0357 38.2 41.5241 37.275 46.3155ZM22.175 59.7665H26.7625L27.85 54.1765C32.9875 54.1765 36.175 54.5508 39.125 51.7932C42.3875 48.7986 43.2375 43.4706 40.9125 40.8004C39.7 39.4029 37.75 38.7166 35.1 38.7166H26.2625L22.175 59.7665ZM45.3875 33.1141H49.95L48.8625 38.7041C52.8 38.7041 56.45 38.4171 58.2125 40.0392C60.0625 41.7362 59.175 43.9073 57.175 54.1515H52.55C54.475 44.2442 54.8375 43.4207 54.1375 42.672C53.4625 41.9483 51.925 42.098 48.2125 42.098L45.8625 54.1515H41.3L45.3875 33.1141ZM73.125 46.3155C72.125 51.4439 68.5375 50.8449 64.3625 50.8449L66.075 42.0357C70.85 42.0357 74.05 41.5241 73.125 46.3155ZM58.025 59.7665H62.625L63.7125 54.1765C69.1125 54.1765 72.1 54.4884 74.9875 51.7932C78.25 48.7986 79.1 43.4706 76.775 40.8004C75.5625 39.4029 73.6125 38.7166 70.9625 38.7166H62.125L58.025 59.7665Z" fill="#363636"/>
</svg>
