<svg width="100" height="100" viewBox="0 0 100 100" fill="currentColor" xmlns="http://www.w3.org/2000/svg">
<path d="M74.527 37.8603C73.6938 37.5831 72.8605 37.3212 72.0273 37.0748C72.1662 36.505 72.2896 35.9352 72.4131 35.3653C74.3109 26.1863 73.0611 18.8093 68.8488 16.3759C64.7908 14.0504 58.1715 16.4683 51.475 22.2899C50.8115 22.8597 50.1635 23.4604 49.5463 24.061C49.1297 23.6606 48.6977 23.2602 48.2656 22.8751C41.2451 16.6531 34.2092 14.035 29.9969 16.4837C25.9543 18.8247 24.7508 25.7705 26.448 34.4567C26.6178 35.3191 26.8029 36.1662 27.0189 37.0286C26.0314 37.3058 25.0594 37.6139 24.149 37.9373C15.9096 40.7865 10 45.2835 10 49.9346C10 54.7397 16.2953 59.5602 24.8588 62.4864C25.5531 62.7174 26.2475 62.9484 26.9572 63.1487C26.7258 64.0727 26.5252 64.9814 26.34 65.9208C24.7199 74.4684 25.9852 81.2448 30.0277 83.5703C34.1938 85.9729 41.1988 83.5087 48.0187 77.5486C48.5588 77.0711 49.0988 76.5783 49.6389 76.0547C50.3178 76.7169 51.0275 77.3483 51.7373 77.9644C58.3412 83.6319 64.868 85.9267 68.8951 83.6011C73.0611 81.1986 74.4189 73.9139 72.66 65.043C72.5211 64.3653 72.3668 63.6723 72.1971 62.9638C72.6908 62.8252 73.1691 62.6712 73.6475 62.5172C82.5504 59.5756 89 54.8167 89 49.9346C89 45.2681 82.9207 40.7403 74.527 37.8603ZM53.6506 24.7849C59.3904 19.7949 64.7445 17.839 67.1824 19.2405C69.79 20.7344 70.793 26.7716 69.1574 34.7031C69.0494 35.2267 68.9414 35.7349 68.8025 36.2432C65.3771 35.4731 61.9055 34.9187 58.4184 34.6107C56.4125 31.7461 54.2215 29.0047 51.8453 26.4328C52.4471 25.8629 53.0334 25.3239 53.6506 24.7849ZM35.7984 57.9277C36.5854 59.2676 37.3877 60.6075 38.2363 61.9166C35.8293 61.6548 33.4377 61.2697 31.077 60.7615C31.7559 58.5438 32.6045 56.249 33.592 53.9081C34.3018 55.2634 35.027 56.6032 35.7984 57.9277ZM31.1232 39.4004C33.3451 38.9075 35.7059 38.5071 38.1592 38.1991C37.3414 39.4774 36.5391 40.7865 35.783 42.1109C35.027 43.42 34.2863 44.7599 33.592 46.1152C32.6199 43.8204 31.8021 41.5719 31.1232 39.4004ZM35.351 50.0116C36.3693 47.8863 37.4803 45.8072 38.6529 43.7588C39.8256 41.7105 41.0908 39.7238 42.4178 37.7679C44.7322 37.5985 47.093 37.506 49.5 37.506C51.907 37.506 54.2832 37.5985 56.5822 37.7679C57.8937 39.7084 59.1436 41.6951 60.3316 43.728C61.5197 45.761 62.6307 47.8401 63.6799 49.95C62.6461 52.0754 61.5352 54.1699 60.3471 56.2336C59.1744 58.2819 57.9246 60.2687 56.6131 62.24C54.3141 62.4094 51.9225 62.4864 49.5 62.4864C47.0775 62.4864 44.7322 62.4094 42.4641 62.2708C41.1217 60.3149 39.8564 58.3128 38.6684 56.2644C37.4803 54.2161 36.3848 52.137 35.351 50.0116ZM63.217 57.8969C64.0039 56.5416 64.7445 55.171 65.4697 53.7849C66.4572 56.018 67.3213 58.2819 68.0773 60.6075C65.6857 61.1465 63.2633 61.5624 60.8254 61.8396C61.6586 60.5459 62.4455 59.2214 63.217 57.8969ZM65.4389 46.1152C64.7137 44.7599 63.973 43.4046 63.2016 42.0801C62.4455 40.7711 61.6586 39.4774 60.8408 38.1991C63.325 38.5071 65.7012 38.9229 67.923 39.4312C67.2133 41.7105 66.3801 43.9283 65.4389 46.1152ZM49.5309 28.7891C51.151 30.5448 52.6785 32.3929 54.098 34.3027C51.043 34.164 47.9725 34.164 44.9174 34.3027C46.4295 32.3159 47.9879 30.4678 49.5309 28.7891ZM31.6324 19.3483C34.2246 17.839 39.9799 19.9952 46.0438 25.3547C46.4295 25.6935 46.8152 26.0631 47.2164 26.4328C44.8248 29.0047 42.6184 31.7461 40.5971 34.6107C37.11 34.9187 33.6537 35.4577 30.2283 36.2124C30.0277 35.4269 29.858 34.6261 29.6883 33.8252C28.2379 26.3712 29.1945 20.7498 31.6324 19.3483ZM27.8521 59.9453C27.2041 59.7604 26.5715 59.5602 25.9389 59.3446C22.6523 58.3128 18.9184 56.6802 16.2182 54.5395C14.6598 53.4614 13.6105 51.7981 13.3174 49.9346C13.3174 47.1163 18.1932 43.5124 25.2291 41.0637C26.1086 40.7557 27.0035 40.4784 27.8984 40.2166C28.9477 43.5586 30.2129 46.839 31.6787 50.0116C30.1975 53.2304 28.9168 56.557 27.8521 59.9453ZM45.8432 75.0382C43.2973 77.3637 40.3502 79.2119 37.1408 80.4747C35.4281 81.291 33.4531 81.368 31.6941 80.6749C29.2408 79.2581 28.2225 73.8215 29.6111 66.5061C29.7809 65.6436 29.966 64.7812 30.182 63.9341C33.6383 64.6733 37.1254 65.1816 40.6588 65.4434C42.6955 68.3234 44.9328 71.0801 47.3244 73.6675C46.8307 74.1449 46.3369 74.607 45.8432 75.0382ZM49.6234 71.2958C48.0496 69.6017 46.4758 67.7227 44.9482 65.7052C46.4295 65.7668 47.957 65.7976 49.5 65.7976C51.0893 65.7976 52.6477 65.7668 54.1906 65.6898C52.7711 67.6457 51.2436 69.5092 49.6234 71.2958ZM69.79 75.916C69.6512 77.795 68.7254 79.5507 67.2441 80.7366C64.7908 82.1534 59.5602 80.3053 53.9129 75.4694C53.2648 74.915 52.6168 74.3143 51.9533 73.6983C54.3141 71.0955 56.4896 68.3388 58.4646 65.4434C61.998 65.1508 65.516 64.6117 68.9877 63.8263C69.142 64.4577 69.2809 65.0892 69.4043 65.7052C70.1604 69.0318 70.2838 72.497 69.79 75.916ZM72.5982 59.36C72.1662 59.4986 71.7342 59.6372 71.2867 59.7604C70.2066 56.403 68.8797 53.1226 67.3522 49.9346C68.8334 46.7928 70.0832 43.5586 71.1324 40.2474C71.9348 40.4784 72.7063 40.7248 73.4469 40.9713C80.6371 43.4354 85.6826 47.1008 85.6826 49.9038C85.6826 52.9224 80.2977 56.8189 72.5982 59.36ZM49.5 57.0499C53.4037 57.0499 56.5668 53.8927 56.5668 49.9962C56.5668 46.0998 53.4037 42.9426 49.5 42.9426C45.5963 42.9426 42.4332 46.0998 42.4332 49.9962C42.4332 53.8927 45.5963 57.0499 49.5 57.0499Z" fill="currentColor"/>
</svg>
